<svg xmlns="http://www.w3.org/2000/svg" viewBox="0 0 349.92 305.26"><path d="M186.08,368.21A10.69,10.69,0,0,1,175.4,379H160.54a1.84,1.84,0,0,1-1.85-1.85v-5.58a1.77,1.77,0,0,1,.54-1.31,1.84,1.84,0,0,1,1.31-.54H175.4a1.43,1.43,0,0,0,1.41-1.47,1.44,1.44,0,0,0-1.45-1.31H160.54a1.82,1.82,0,0,1-1.31-.56,1.79,1.79,0,0,1-.54-1.31V347.39a1.77,1.77,0,0,1,.54-1.31,1.84,1.84,0,0,1,1.31-.54H181.9a1.77,1.77,0,0,1,1.31.54,1.75,1.75,0,0,1,.56,1.31V353a1.75,1.75,0,0,1-.56,1.31,1.77,1.77,0,0,1-1.31.54H168.44a.41.41,0,0,0-.47.47v1.84a.42.42,0,0,0,.47.47h6.85a10.43,10.43,0,0,1,7.59,3.11A10.16,10.16,0,0,1,186.08,368.21Z" transform="translate(-65.04 -73.7)" style="fill:#fff"/><path d="M217.49,366a13,13,0,0,1-13,13h-1.87a1.84,1.84,0,0,1-1.85-1.85v-5.58a1.77,1.77,0,0,1,.54-1.31,1.84,1.84,0,0,1,1.31-.54h1.87a3.76,3.76,0,0,0,3.72-3.71V347.39a1.83,1.83,0,0,1,1.84-1.85h5.59a1.83,1.83,0,0,1,1.84,1.85Z" transform="translate(-65.04 -73.7)" style="fill:#fff"/><path d="M228,374.31a.43.43,0,0,0-.42.3l-1.24,3.16a1.72,1.72,0,0,1-1.73,1.19h-6a1.85,1.85,0,0,1-1.73-2.52l11.61-29.73a1.7,1.7,0,0,1,1.73-1.17h8.11a1.69,1.69,0,0,1,1.73,1.19l11.29,29.71a1.84,1.84,0,0,1-1.73,2.52h-6a1.71,1.71,0,0,1-1.73-1.19l-1.19-3.16a.44.44,0,0,0-.44-.3Zm6.68-15.66a.43.43,0,0,0-.44-.3.42.42,0,0,0-.42.28l-2.27,5.77a.47.47,0,0,0,.07.42.41.41,0,0,0,.38.21h4.44a.43.43,0,0,0,.37-.19.47.47,0,0,0,.07-.44Z" transform="translate(-65.04 -73.7)" style="fill:#fff"/><path d="M266,374.31a.42.42,0,0,0-.42.3l-1.24,3.16A1.72,1.72,0,0,1,262.6,379h-6a1.78,1.78,0,0,1-1.55-.82,1.73,1.73,0,0,1-.18-1.7l11.61-29.73a1.69,1.69,0,0,1,1.73-1.17h8.11a1.7,1.7,0,0,1,1.73,1.19l11.29,29.71a1.79,1.79,0,0,1-.19,1.72,1.76,1.76,0,0,1-1.54.8h-6a1.7,1.7,0,0,1-1.73-1.19l-1.19-3.16a.45.45,0,0,0-.45-.3Zm6.68-15.66a.43.43,0,0,0-.44-.3.4.4,0,0,0-.42.28l-2.27,5.77a.44.44,0,0,0,.07.42.39.39,0,0,0,.37.21h4.44a.44.44,0,0,0,.38-.19.49.49,0,0,0,.07-.44Z" transform="translate(-65.04 -73.7)" style="fill:#fff"/><path d="M302.26,370.59a.42.42,0,0,0-.47.47v6.05a1.82,1.82,0,0,1-.54,1.31,1.75,1.75,0,0,1-1.3.54h-5.59a1.84,1.84,0,0,1-1.85-1.85V347.39a1.77,1.77,0,0,1,.54-1.31,1.82,1.82,0,0,1,1.31-.54h14.28a12.25,12.25,0,0,1,8.9,3.65,11.84,11.84,0,0,1,3.74,8.83,12.22,12.22,0,0,1-1.63,6.26,12.51,12.51,0,0,1-4.4,4.51l4.37,7.36A1.84,1.84,0,0,1,318,379h-6.47a1.73,1.73,0,0,1-1.59-.91l-4.28-7.22a.43.43,0,0,0-.39-.24Zm0-15.77a.41.41,0,0,0-.47.47v5.56a.42.42,0,0,0,.47.47h6.5a3.13,3.13,0,0,0,2.33-1,3.22,3.22,0,0,0-.09-4.58,3.17,3.17,0,0,0-2.29-.93Z" transform="translate(-65.04 -73.7)" style="fill:#fff"/><circle cx="141.02" cy="128.84" r="9.67" style="fill:#fff"/><circle cx="207.38" cy="128.94" r="9.67" style="fill:#fff"/><path d="M272.46,175h0a27.64,27.64,0,0,0-27.54,25.71c-2.79,3.45-5,6.31-5.66,7.13-.63-.81-2.85-3.67-5.61-7.11a27.6,27.6,0,0,0-27.51-25.82h0a27.61,27.61,0,0,0,0,55.22h0a27.41,27.41,0,0,0,19.49-8.06,28.28,28.28,0,0,0,3.91-4.88L239,240.77l.14.36.15-.36L249,217.2a27.6,27.6,0,0,0,23.41,13.05h0a27.61,27.61,0,0,0,0-55.22Zm-49.68,27.54a16.71,16.71,0,0,1-16.72,16.7h0a16.73,16.73,0,0,1,0-33.45h0a16.73,16.73,0,0,1,16.7,16.75Zm49.64,16.8h0a16.73,16.73,0,0,1,0-33.46h0a16.73,16.73,0,0,1,0,33.46Z" transform="translate(-65.04 -73.7)" style="fill:#fff"/><polygon points="116.26 109.67 109.85 106.64 108.4 109.71 107.41 109.25 108.8 106.3 102.38 103.27 100.98 106.24 100.12 105.83 101.52 102.86 95.1 99.83 93.69 102.82 91.7 101.89 93.09 98.95 47.23 77.3 45.77 80.39 44.43 79.76 45.9 76.66 39.48 73.64 38.01 76.75 36.73 76.15 38.2 73.03 31.78 70 30.3 73.14 29.13 72.6 30.62 69.45 24.2 66.42 22.71 69.59 20.33 68.48 13.02 84.83 112 118.25 115.02 112.81 114.83 112.72 116.26 109.67" style="fill:#fff"/><polygon points="329.46 68.48 327.09 69.59 325.6 66.42 319.18 69.45 320.67 72.6 319.5 73.14 318.01 70 311.6 73.03 313.07 76.15 311.79 76.75 310.32 73.64 303.9 76.66 305.37 79.76 304.03 80.39 302.57 77.3 256.7 98.95 258.1 101.89 256.11 102.82 254.7 99.83 248.28 102.86 249.68 105.83 248.82 106.24 247.42 103.27 241 106.3 242.39 109.25 241.4 109.71 239.95 106.64 233.53 109.67 234.97 112.72 234.78 112.81 237.79 118.25 336.78 84.83 329.46 68.48" style="fill:#fff"/><path d="M224.27,243.48l-5.56-5-2,2.57-.48-.45-4.84,6.27.4,1a25.21,25.21,0,0,1-8,4.22c-7.52,2.33-15.05.51-22.4-5.41a35.1,35.1,0,0,0-15.13-7.37,31.52,31.52,0,0,0-13.35.25,38.45,38.45,0,0,0-14.87,7.12l3.08,3.81A33.89,33.89,0,0,1,154,244.3c8.61-2,16.8.09,24.32,6.16,7.06,5.69,13.68,7.46,19.18,7.46a26.12,26.12,0,0,0,7.74-1.18,29.86,29.86,0,0,0,10.26-5.63l2.19.26,4.77-4.92-.39-.37Z" transform="translate(-65.04 -73.7)" style="fill:#fff"/><path d="M326.73,239.53a31.52,31.52,0,0,0-13.35-.25,35.08,35.08,0,0,0-15.14,7.37c-7.28,5.87-14.75,7.7-22.22,5.46a24.93,24.93,0,0,1-8.15-4.28l.4-1-4.85-6.27-.48.45-2-2.57-5.57,5,2.18,2.6-.39.37,4.77,4.92,2.2-.26a29.79,29.79,0,0,0,10.25,5.63,26.19,26.19,0,0,0,7.75,1.18c5.5,0,12.12-1.77,19.17-7.46,7.53-6.07,15.71-8.14,24.32-6.16a34,34,0,0,1,12.89,6.16l3.07-3.81A38.46,38.46,0,0,0,326.73,239.53Z" transform="translate(-65.04 -73.7)" style="fill:#fff"/><path d="M76.77,318.16a11.7,11.7,0,0,1-8.21-20.07,11.53,11.53,0,0,1,8.34-3.38H95.12a2,2,0,0,1,2,2v6.14a2,2,0,0,1-2,2H76.77a1.41,1.41,0,0,0-1.1.48,1.45,1.45,0,0,0-.44,1.13,1.39,1.39,0,0,0,.51,1,1.53,1.53,0,0,0,1.08.41H87.47A11.73,11.73,0,0,1,99.2,319.76,11.18,11.18,0,0,1,95.68,328a11.48,11.48,0,0,1-8.34,3.42H69.12a2,2,0,0,1-1.44-.59,2,2,0,0,1-.61-1.44v-6.13a1.9,1.9,0,0,1,.61-1.44,2,2,0,0,1,1.44-.59H87.47a1.47,1.47,0,0,0,1.11-.49,1.52,1.52,0,0,0-.08-2.16,1.6,1.6,0,0,0-1.08-.41Z" transform="translate(-65.04 -73.7)" style="fill:#fff"/><path d="M111.8,326.3a.47.47,0,0,0-.46.33L110,330.1a1.89,1.89,0,0,1-1.9,1.31h-6.57a1.94,1.94,0,0,1-1.69-.9,1.9,1.9,0,0,1-.21-1.87L112.37,296a1.84,1.84,0,0,1,1.9-1.28h8.9a1.85,1.85,0,0,1,1.9,1.31l12.4,32.62a2,2,0,0,1-.21,1.89,1.94,1.94,0,0,1-1.69.88H129a1.87,1.87,0,0,1-1.9-1.31l-1.3-3.47a.49.49,0,0,0-.49-.33Zm7.34-17.2a.48.48,0,0,0-.49-.33.46.46,0,0,0-.46.31l-2.49,6.34a.5.5,0,0,0,.08.46.44.44,0,0,0,.41.23h4.88a.5.5,0,0,0,.41-.2.58.58,0,0,0,.08-.49Z" transform="translate(-65.04 -73.7)" style="fill:#fff"/><path d="M170.5,321.22a2,2,0,0,1,1.44.59,2,2,0,0,1,.59,1.44v6.13a2,2,0,0,1-.59,1.44,2,2,0,0,1-1.44.59H143a2,2,0,0,1-2-2V296.73a2,2,0,0,1,.59-1.43,2,2,0,0,1,1.44-.59h6.13a1.92,1.92,0,0,1,1.44.59,2,2,0,0,1,.59,1.43v24a.45.45,0,0,0,.51.51Z" transform="translate(-65.04 -73.7)" style="fill:#fff"/><path d="M192.13,330.1a1.88,1.88,0,0,1-1.89,1.31H181.3a1.87,1.87,0,0,1-1.9-1.31L167,297.48a1.94,1.94,0,0,1,.23-1.9,1.9,1.9,0,0,1,1.67-.87h6.54a1.85,1.85,0,0,1,1.9,1.31l8,21a.49.49,0,0,0,.49.33.46.46,0,0,0,.46-.33l8.22-21a1.87,1.87,0,0,1,1.89-1.28H203a2,2,0,0,1,1.89,2.77Z" transform="translate(-65.04 -73.7)" style="fill:#fff"/><path d="M237.9,321.22a2,2,0,0,1,1.43.59,1.92,1.92,0,0,1,.59,1.44v6.13a2,2,0,0,1-.59,1.44,2,2,0,0,1-1.43.59H210.36a2,2,0,0,1-2-2V296.73a2,2,0,0,1,.59-1.43,2,2,0,0,1,1.44-.59H237.9a2,2,0,0,1,2,2v6.14a2,2,0,0,1-2,2H219a.45.45,0,0,0-.51.51v3a.45.45,0,0,0,.51.52h12.06a1.92,1.92,0,0,1,1.44.59,2,2,0,0,1,.62,1.46v4.05a2,2,0,0,1-.62,1.47,2,2,0,0,1-1.44.59H219a.45.45,0,0,0-.51.51v3.06a.45.45,0,0,0,.51.51Z" transform="translate(-65.04 -73.7)" style="fill:#fff"/><path d="M267.15,314.24a.42.42,0,0,0-.56-.18.44.44,0,0,0-.36.46v14.86a2,2,0,0,1-.59,1.44,2,2,0,0,1-1.44.59h-6.13a2,2,0,0,1-2-2V296.73a2,2,0,0,1,.59-1.43,2,2,0,0,1,1.44-.59h6.8a1.94,1.94,0,0,1,1.67.87L275,307.64a.48.48,0,0,0,.44.23.46.46,0,0,0,.41-.23l8.44-12.06a1.94,1.94,0,0,1,1.67-.87h6.8a2.07,2.07,0,0,1,2.06,2v32.65a2.07,2.07,0,0,1-2.06,2h-6.11a2,2,0,0,1-1.43-.59,2,2,0,0,1-.62-1.44V314.52a.44.44,0,0,0-.36-.46.43.43,0,0,0-.56.18l-7.83,11.19a.5.5,0,0,1-.41.2.53.53,0,0,1-.44-.2Z" transform="translate(-65.04 -73.7)" style="fill:#fff"/><path d="M314.15,331.41a16.25,16.25,0,0,1-16.27-16.22V296.73a1.92,1.92,0,0,1,.59-1.43,2,2,0,0,1,1.43-.59H306a2,2,0,0,1,2,2v18.46a6,6,0,0,0,10.32,4.18,5.88,5.88,0,0,0,1.72-4.26V296.73a2.07,2.07,0,0,1,2-2h6.11a1.92,1.92,0,0,1,1.44.59,2,2,0,0,1,.59,1.43V315a15.87,15.87,0,0,1-4.72,11.55A15.55,15.55,0,0,1,314.15,331.41Z" transform="translate(-65.04 -73.7)" style="fill:#fff"/><path d="M344.48,315.26a.46.46,0,0,0-.56-.2.48.48,0,0,0-.36.49v13.83a2,2,0,0,1-.59,1.44,2,2,0,0,1-1.44.59H335.4a2,2,0,0,1-2-2V296.73a2,2,0,0,1,.59-1.43,2,2,0,0,1,1.44-.59h6.08a1.91,1.91,0,0,1,1.67.87l10.7,15.27a.48.48,0,0,0,.57.2.47.47,0,0,0,.36-.48V296.73a1.92,1.92,0,0,1,.59-1.43,2,2,0,0,1,1.46-.59h6.11a2,2,0,0,1,2,2v32.65a2,2,0,0,1-.59,1.44,2,2,0,0,1-1.43.59h-6.09a1.91,1.91,0,0,1-1.66-.88Z" transform="translate(-65.04 -73.7)" style="fill:#fff"/><path d="M401.69,313.06a18.4,18.4,0,0,1-18.35,18.35H370.07a2,2,0,0,1-2-2V296.73a2,2,0,0,1,.59-1.43,2,2,0,0,1,1.44-.59h13.12a17.89,17.89,0,0,1,13,5.39A17.52,17.52,0,0,1,401.69,313.06Zm-22.94-8.16a.45.45,0,0,0-.52.51v15.3a.45.45,0,0,0,.52.51h4.59A8.14,8.14,0,0,0,391.5,313a7.85,7.85,0,0,0-2.46-5.72,8,8,0,0,0-5.8-2.36Z" transform="translate(-65.04 -73.7)" style="fill:#fff"/><path d="M412.93,294.71a1.92,1.92,0,0,1,1.44.59,2,2,0,0,1,.59,1.43v32.65a2,2,0,0,1-.59,1.44,2,2,0,0,1-1.44.59H406.8a2,2,0,0,1-2-2V296.73a2,2,0,0,1,.59-1.43,2,2,0,0,1,1.44-.59Z" transform="translate(-65.04 -73.7)" style="fill:#fff"/><path d="M240.26,73.7A167.75,167.75,0,0,1,280,78.94c1.13.29,1.41.71,1.27,1.86Q278.59,103,276,125.12a2.12,2.12,0,0,1-1.41,1.95,84.63,84.63,0,0,1-27.51,6.65,88.87,88.87,0,0,1-38.65-5.43,32.14,32.14,0,0,1-3.41-1.47,1.94,1.94,0,0,1-.9-1.22q-1.64-13.21-3.19-26.45c-.75-6.27-1.48-12.55-2.26-18.82-.1-.78.09-1.06.82-1.25A166.73,166.73,0,0,1,240.26,73.7Z" transform="translate(-65.04 -73.7)" style="fill:#fff"/><path d="M240,170.3a183.76,183.76,0,0,1-30.38-1.9c-5.38-.87-10.72-2-15.55-4.64a18.06,18.06,0,0,1-4.63-3.55c-3.31-3.64-2.86-7.78,1-10.84,2.86-2.28,6.24-3.51,9.62-4.78a9.3,9.3,0,0,1,7.4.17,89.27,89.27,0,0,0,67.78-1,2,2,0,0,1,1.13-.16,40.5,40.5,0,0,1,11.75,4.72,15.5,15.5,0,0,1,2.28,1.75c2.81,2.65,3.31,5.93,1,9.06a16.7,16.7,0,0,1-4.45,4.09c-4.14,2.63-8.87,3.77-13.64,4.69a155.53,155.53,0,0,1-26.37,2.42C244.6,170.35,242.28,170.3,240,170.3Z" transform="translate(-65.04 -73.7)" style="fill:#fff"/><path d="M275.77,130.4c-.27,3.19-.6,6.33-.75,9.47-.07,1.36-.6,1.86-1.87,2.22-9.44,2.67-18.95,5-28.77,5.76a70.68,70.68,0,0,1-20.26-1.61c-6-1.27-12-2.91-17.94-4.36a1.3,1.3,0,0,1-1.16-1.37c-.22-3.35-.53-6.68-.81-10.11C228.1,139,251.88,139,275.77,130.4Z" transform="translate(-65.04 -73.7)" style="fill:#fff"/></svg>